/* XPM */
static char *Free_Converter_com_pixelart_1_17841424[] = {
/* columns rows colors chars-per-pixel */
"47 26 10 1 ",
"  c black",
". c #161A1C",
"X c #B87070",
"o c #C97B7B",
"O c #687B85",
"+ c #6B7E87",
"@ c #D48181",
"# c #EB8A8A",
"$ c #FF9696",
"% c None",
/* pixels */
"%%%%%%%%%%%%%%%%%%%%%%%%%%%%%%%%%%%%%%%%%%%%%%%",
"%%%%%%%%%%%%%%%%%%%%%%%%%%%%%%%%%%%%%%%%%%%%%%%",
"%%%%%%%%%%%%%%%%%%%%%%%%%%%%%%%%%%%%%%%%%%%%%%%",
"%%%%%%%%%%%%%%%%%%%%%%%%%%%%%%%%%%%%%%%%%%%%%%%",
"%%%%%%%%%%%%%%%%%%%%%%%%%%%%%%++%%%++%%%%%%%%%%",
"%%%%%%%%%%%%%%%%%%++++++++++%%+++++++%%%%%%%%%%",
"%%%%%%%%%%%%%%+++++++++++++++++++++++%%%%%%%%%%",
"%%%%%%%%%%%%%++++++++++++++++++++++++O%%%%%%%%%",
"%%%%%%%%%%%%++++++++++++++++++++++++++O%%%%%%%%",
"%%%%%%%%%%%%+++++++++++++++++++++++++++O%%%%%%%",
"%%%%%%%%%%%%++++++++++++++++++++++++  +OO%%%%%%",
"%%%%%%%%%%%%++++++++++++++++++++++++..++++%%%%%",
"%%%%%%%%%%%++++++++++++++++++++++++++++++++%%%%",
"%%%%%%%%%$$++++++++++++++++++++++++++++++++X%%%",
"%%%%%%%$$$%+++++++++++++++++++++++++++++++oo@%%",
"%%%$$$$$%%%%+++++++++++++++++++++++++++++++o%%%",
"%%$$%%%%%%%%++++++++++++++++++++++++++++++%%%%%",
"%$$%%%%%%%%%%+++++++++++++++++++++++++++%%%%%%%",
"%%%%%%%%%%%%%%%+++++++++++++++++++++++##%%%%%%%",
"%%%%%%%%%%%%%%%##%%#%%%%%%%%%%%%%%#%%%%##%%%%%%",
"%%%%%%%%%%%%%%#%%%%##%%%%%%%%%%%%%#%%%%%###%%%%",
"%%%%%%%%%%%%%%#%%%%%#%%%%%%%%%%%%%%#%%%%%%#%%%%",
"%%%%%%%%%%%%%%##%%%%###%%%%%%%%%%%%##%#%%%%%%%%",
"%%%%%%%%%%%%%%%%%%%%%%%%%%%%%%%%%%%%###%%%%%%%%",
"%%%%%%%%%%%%%%%%%%%%%%%%%%%%%%%%%%%%%%%%%%%%%%%",
"%%%%%%%%%%%%%%%%%%%%%%%%%%%%%%%%%%%%%%%%%%%%%%%"
};
